<svg width="18" height="18" viewBox="0 0 18 18" fill="none" xmlns="http://www.w3.org/2000/svg">
<path d="M11.8458 9C11.8458 8.21333 11.5724 7.54 11.0258 6.98C10.4791 6.42 9.80578 6.14 9.00578 6.14C8.20578 6.14 7.53245 6.42 6.98578 6.98C6.43911 7.54 6.15911 8.21333 6.14578 9C6.13245 9.78667 6.41245 10.46 6.98578 11.02C7.55911 11.58 8.23245 11.86 9.00578 11.86C9.77911 11.86 10.4524 11.58 11.0258 11.02C11.5991 10.46 11.8724 9.78667 11.8458 9ZM13.3858 9C13.3858 10.2133 12.9591 11.2533 12.1058 12.12C11.2524 12.9867 10.2191 13.4133 9.00578 13.4C7.79245 13.3867 6.75245 12.96 5.88578 12.12C5.01911 11.28 4.59245 10.24 4.60578 9C4.61911 7.76 5.04578 6.72 5.88578 5.88C6.72578 5.04 7.76578 4.61333 9.00578 4.6C10.2458 4.58667 11.2791 5.01333 12.1058 5.88C12.9324 6.74667 13.3591 7.78667 13.3858 9ZM14.6058 4.42C14.6058 4.7 14.5058 4.94 14.3058 5.14C14.1058 5.34 13.8591 5.44 13.5658 5.44C13.2724 5.44 13.0324 5.34 12.8458 5.14C12.6591 4.94 12.5591 4.7 12.5458 4.42C12.5324 4.14 12.6324 3.9 12.8458 3.7C13.0591 3.5 13.2991 3.4 13.5658 3.4C13.8324 3.4 14.0791 3.5 14.3058 3.7C14.5324 3.9 14.6324 4.14 14.6058 4.42ZM9.00578 1.96C8.95245 1.96 8.66578 1.96 8.14578 1.96H6.96578C6.69911 1.96 6.33911 1.97333 5.88578 2C5.43245 2.02667 5.05245 2.06 4.74578 2.1C4.43911 2.14 4.17245 2.21333 3.94578 2.32C3.57245 2.46667 3.24578 2.68 2.96578 2.96C2.68578 3.24 2.46578 3.56667 2.30578 3.94C2.22578 4.15333 2.15911 4.42 2.10578 4.74C2.05245 5.06 2.01245 5.44667 1.98578 5.9C1.95911 6.35333 1.95245 6.70667 1.96578 6.96C1.97911 7.21333 1.97911 7.60667 1.96578 8.14C1.95245 8.67333 1.95245 8.96 1.96578 9C1.97911 9.04 1.97911 9.32667 1.96578 9.86C1.95245 10.3933 1.95245 10.7867 1.96578 11.04C1.97911 11.2933 1.98578 11.6467 1.98578 12.1C1.98578 12.5533 2.02578 12.94 2.10578 13.26L2.30578 14.06C2.46578 14.4333 2.68578 14.76 2.96578 15.04C3.24578 15.32 3.57245 15.5333 3.94578 15.68C4.15911 15.76 4.42578 15.8333 4.74578 15.9C5.06578 15.9667 5.44578 16 5.88578 16C6.32578 16 6.68578 16.0133 6.96578 16.04C7.24578 16.0667 7.63911 16.0667 8.14578 16.04C8.65245 16.0133 8.93912 16.0133 9.00578 16.04C9.07245 16.0667 9.35245 16.0667 9.84578 16.04C10.3391 16.0133 10.7324 16.0133 11.0258 16.04C11.3191 16.0667 11.6791 16.0533 12.1058 16C12.5324 15.9467 12.9191 15.9133 13.2658 15.9C13.6124 15.8867 13.8724 15.8133 14.0458 15.68C14.4191 15.5333 14.7524 15.32 15.0458 15.04C15.3391 14.76 15.5524 14.4333 15.6858 14.06C15.7658 13.8467 15.8324 13.58 15.8858 13.26C15.9391 12.94 15.9791 12.5533 16.0058 12.1C16.0324 11.6467 16.0391 11.2933 16.0258 11.04C16.0124 10.7867 16.0124 10.3933 16.0258 9.86C16.0391 9.32667 16.0391 9.04 16.0258 9C16.0124 8.96 16.0124 8.67333 16.0258 8.14C16.0391 7.60667 16.0391 7.21333 16.0258 6.96C16.0124 6.70667 16.0058 6.35333 16.0058 5.9C16.0058 5.44667 15.9658 5.06 15.8858 4.74L15.6858 3.94C15.5391 3.56667 15.3258 3.24 15.0458 2.96C14.7658 2.68 14.4324 2.46667 14.0458 2.32C13.8324 2.24 13.5724 2.16667 13.2658 2.1C12.9591 2.03333 12.5724 2 12.1058 2C11.6391 2 11.2791 1.98667 11.0258 1.96C10.7724 1.93333 10.3791 1.93333 9.84578 1.96C9.31245 1.98667 9.03245 1.98667 9.00578 1.96ZM17.5658 9C17.5658 10.7067 17.5458 11.8867 17.5058 12.54C17.4391 14.0867 16.9791 15.2867 16.1258 16.14C15.2724 16.9933 14.0791 17.4533 12.5458 17.52C11.8791 17.56 10.6991 17.58 9.00578 17.58C7.31245 17.58 6.13245 17.56 5.46578 17.52C3.91911 17.44 2.71911 16.98 1.86578 16.14C1.01245 15.3 0.552448 14.1 0.485781 12.54C0.445781 11.8867 0.425781 10.7067 0.425781 9C0.425781 7.29333 0.445781 6.11333 0.485781 5.46C0.552448 3.91333 1.01245 2.71333 1.86578 1.86C2.71911 1.00667 3.91911 0.546666 5.46578 0.48C6.11911 0.439999 7.29912 0.419999 9.00578 0.419999C10.7124 0.419999 11.8924 0.439999 12.5458 0.48C14.0924 0.559999 15.2858 1.02 16.1258 1.86C16.9658 2.7 17.4258 3.9 17.5058 5.46C17.5458 6.11333 17.5658 7.29333 17.5658 9Z" fill="white"/>
</svg>
