<svg width="32" height="32" viewBox="0 0 32 32" fill="none" xmlns="http://www.w3.org/2000/svg">
<path d="M16.4025 26.471L16.1761 26.0252L16.1761 26.0252L16.4025 26.471ZM15.5974 26.471L15.8238 26.0252L15.5974 26.471ZM24.8333 14.6666C24.8333 17.9021 23.1458 20.5058 21.1875 22.438C19.2304 24.3691 17.0486 25.5822 16.1761 26.0252L16.6288 26.9168C17.5453 26.4515 19.8289 25.1834 21.8899 23.1498C23.9498 21.1173 25.8333 18.2728 25.8333 14.6666H24.8333ZM16 5.83325C20.8785 5.83325 24.8333 9.78807 24.8333 14.6666H25.8333C25.8333 9.23578 21.4308 4.83325 16 4.83325V5.83325ZM7.16663 14.6666C7.16663 9.78807 11.1214 5.83325 16 5.83325V4.83325C10.5692 4.83325 6.16663 9.23578 6.16663 14.6666H7.16663ZM15.8238 26.0252C14.9514 25.5822 12.7695 24.3691 10.8124 22.438C8.85413 20.5058 7.16663 17.9021 7.16663 14.6666H6.16663C6.16663 18.2728 8.05009 21.1173 10.11 23.1498C12.171 25.1834 14.4546 26.4515 15.3711 26.9168L15.8238 26.0252ZM16.1761 26.0252C16.0644 26.0819 15.9355 26.0819 15.8238 26.0252L15.3711 26.9168C15.7673 27.118 16.2326 27.118 16.6288 26.9168L16.1761 26.0252ZM19.5 14.6666C19.5 16.5996 17.933 18.1666 16 18.1666V19.1666C18.4852 19.1666 20.5 17.1519 20.5 14.6666H19.5ZM16 11.1666C17.933 11.1666 19.5 12.7336 19.5 14.6666H20.5C20.5 12.1813 18.4852 10.1666 16 10.1666V11.1666ZM12.5 14.6666C12.5 12.7336 14.067 11.1666 16 11.1666V10.1666C13.5147 10.1666 11.5 12.1813 11.5 14.6666H12.5ZM16 18.1666C14.067 18.1666 12.5 16.5996 12.5 14.6666H11.5C11.5 17.1519 13.5147 19.1666 16 19.1666V18.1666Z" fill="white"/>
</svg>
