<svg width="19" height="16" viewBox="0 0 19 16" fill="none" xmlns="http://www.w3.org/2000/svg">
<path d="M18.146 2.56C17.6527 3.28 17.0527 3.9 16.346 4.42V4.88C16.346 5.85333 16.206 6.82 15.926 7.78C15.646 8.74 15.2194 9.66667 14.646 10.56C14.0727 11.4533 13.386 12.2333 12.586 12.9C11.786 13.5667 10.826 14.1133 9.70603 14.54C8.58603 14.9667 7.37937 15.1667 6.08603 15.14C4.0727 15.14 2.2327 14.6 0.566031 13.52C0.819365 13.5467 1.10603 13.56 1.42603 13.56C3.10603 13.56 4.59937 13.0467 5.90603 12.02C5.11937 12.0067 4.41936 11.7667 3.80603 11.3C3.1927 10.8333 2.76603 10.24 2.52603 9.52C2.77936 9.56 3.00603 9.58 3.20603 9.58C3.52603 9.58 3.84603 9.54 4.16603 9.46C3.32603 9.28667 2.6327 8.87333 2.08603 8.22C1.53936 7.56667 1.26603 6.8 1.26603 5.92V5.88C1.7727 6.16 2.31936 6.31333 2.90603 6.34C2.4127 6.00667 2.01936 5.58 1.72603 5.06C1.4327 4.54 1.28603 3.96 1.28603 3.32C1.28603 2.68 1.4527 2.08 1.78603 1.52C2.6927 2.62667 3.78603 3.51333 5.06603 4.18C6.34603 4.84667 7.7327 5.21333 9.22603 5.28C9.15937 5 9.12603 4.72667 9.12603 4.46C9.12603 3.46 9.47937 2.61333 10.186 1.92C10.8927 1.22667 11.7394 0.873333 12.726 0.86C13.7794 0.86 14.6594 1.24 15.366 2C16.1794 1.84 16.946 1.54667 17.666 1.12C17.386 1.97333 16.8527 2.64 16.066 3.12C16.7594 3.04 17.4527 2.85333 18.146 2.56Z" fill="white"/>
</svg>
