<svg width="16" height="17" viewBox="0 0 16 17" fill="none" xmlns="http://www.w3.org/2000/svg">
<path d="M13.0328 7.83118C12.7295 7.14846 12.2885 6.53568 11.7375 6.03118L11.2828 5.614C11.2674 5.60022 11.2488 5.59044 11.2287 5.58552C11.2086 5.5806 11.1876 5.5807 11.1675 5.58579C11.1475 5.59088 11.129 5.60081 11.1137 5.61472C11.0984 5.62863 11.0867 5.64609 11.0797 5.66556L10.8766 6.24837C10.75 6.614 10.5172 6.98743 10.1875 7.35462C10.1656 7.37806 10.1406 7.38431 10.1234 7.38587C10.1063 7.38743 10.0797 7.38431 10.0562 7.36243C10.0344 7.34368 10.0234 7.31556 10.025 7.28743C10.0828 6.34681 9.80156 5.28587 9.18594 4.13118C8.67656 3.17181 7.96875 2.42337 7.08437 1.9015L6.43906 1.52181C6.35469 1.47181 6.24688 1.53743 6.25156 1.63587L6.28594 2.38587C6.30937 2.89837 6.25 3.3515 6.10938 3.72806C5.9375 4.189 5.69062 4.61712 5.375 5.0015C5.15535 5.26863 4.90639 5.51024 4.63281 5.72181C3.97391 6.22832 3.43815 6.87733 3.06562 7.62025C2.69402 8.36964 2.50045 9.19471 2.5 10.0312C2.5 10.7687 2.64531 11.4827 2.93281 12.1562C3.21042 12.8046 3.61103 13.393 4.1125 13.889C4.61875 14.389 5.20625 14.7827 5.86094 15.0562C6.53906 15.3406 7.25781 15.4843 8 15.4843C8.74219 15.4843 9.46094 15.3406 10.1391 15.0577C10.7921 14.7859 11.386 14.3895 11.8875 13.8906C12.3938 13.3906 12.7906 12.8062 13.0672 12.1577C13.3543 11.4861 13.5015 10.7631 13.5 10.0327C13.5 9.27024 13.3438 8.52962 13.0328 7.83118Z" fill="#EB5757"/>
</svg>
