<svg width="21" height="21" viewBox="0 0 21 21" fill="none" xmlns="http://www.w3.org/2000/svg">
<path d="M13.4623 14.2437L14.9924 12.713C15.1985 12.5094 15.4592 12.37 15.7429 12.3118C16.0267 12.2535 16.3212 12.279 16.5908 12.385L18.4556 13.1298C18.728 13.2405 18.9616 13.4293 19.1269 13.6725C19.2922 13.9157 19.3819 14.2024 19.3846 14.4965V17.9133C19.383 18.1134 19.341 18.3111 19.261 18.4945C19.181 18.6779 19.0648 18.8432 18.9193 18.9804C18.7738 19.1177 18.602 19.2241 18.4143 19.2932C18.2266 19.3623 18.0269 19.3927 17.8272 19.3826C4.7598 18.5694 2.1231 7.49897 1.62445 3.26215C1.60131 3.0541 1.62246 2.84349 1.68651 2.6442C1.75057 2.44491 1.85607 2.26144 1.9961 2.10587C2.13612 1.9503 2.30748 1.82615 2.49891 1.74159C2.69033 1.65703 2.89749 1.61398 3.10674 1.61526H6.40603C6.70044 1.61613 6.98786 1.7051 7.23132 1.87072C7.47478 2.03634 7.66315 2.27104 7.77219 2.54463L8.51675 4.41019C8.62622 4.6788 8.65415 4.97372 8.59705 5.25811C8.53995 5.5425 8.40035 5.80376 8.1957 6.00925L6.6656 7.53997C6.6656 7.53997 7.54677 13.5057 13.4623 14.2437Z" fill="black"/>
</svg>
