<svg width="295" height="81" viewBox="0 0 295 81" fill="none" xmlns="http://www.w3.org/2000/svg">
<path d="M65.3927 74.8346L63.6519 74.5672C62.5015 74.4144 62.0567 74.1012 62.0567 73.4594C62.0567 72.7412 62.8466 72.2828 64.0737 72.2828C65.385 72.2828 66.267 72.7412 66.382 73.49L66.405 73.6504H67.2409L67.2332 73.4518C67.2026 72.3287 66.0139 71.5952 64.2117 71.5952C62.3098 71.5952 61.2208 72.2905 61.2208 73.5052C61.2208 74.7506 62.0414 75.1173 63.3758 75.3006L65.339 75.591C66.221 75.7285 66.6504 76.0876 66.6504 76.6759C66.6504 77.5086 65.7838 77.9823 64.2654 77.9823C62.9003 77.9823 61.9877 77.4628 61.888 76.6224L61.865 76.4543H61.0444L61.0598 76.6606C61.1441 77.9365 62.3098 78.7005 64.181 78.7005C66.4127 78.7005 67.494 78.0129 67.494 76.5918C67.4787 75.377 66.6811 75.018 65.3927 74.8346Z" fill="black"/>
<path d="M77.4177 71.7402C76.5358 71.7402 75.4161 71.9847 74.6722 73.0314V71.9083H73.8823V80.9923H74.6722V77.4932C75.2627 78.2725 76.2443 78.7232 77.4177 78.7232C79.5727 78.7232 80.9607 77.3557 80.9607 75.2394C80.9531 73.1154 79.565 71.7402 77.4177 71.7402ZM77.4024 72.4584C79.0128 72.4584 80.1402 73.6044 80.1402 75.247C80.1402 76.8744 79.0128 78.0127 77.4024 78.0127C75.7689 78.0127 74.6646 76.9049 74.6646 75.247C74.6646 73.5815 75.7612 72.4584 77.4024 72.4584Z" fill="black"/>
<path d="M94.0284 77.6997C94.0054 77.7073 93.9594 77.7226 93.9441 77.7226C93.8137 77.7226 93.7217 77.6997 93.6757 77.6462C93.5836 77.5545 93.5836 77.3329 93.5836 77.0961V74.0401C93.5836 73.3295 93.5606 72.8635 93.2002 72.4204C92.7324 71.8626 91.9885 71.6182 90.7231 71.6182C89.4808 71.6182 88.5912 71.8856 88.0774 72.4051C87.7399 72.7413 87.5712 73.1767 87.5789 73.6963V73.8873H88.3841V73.6963C88.3841 72.8329 89.2124 72.3363 90.6618 72.3363C91.6127 72.3363 92.7477 72.5426 92.7477 73.5129C92.7477 74.3075 92.3413 74.3915 91.0452 74.5443C90.8305 74.5672 90.6081 74.5978 90.3627 74.6284C89.2277 74.7735 88.4455 74.8958 87.97 75.2396C87.4945 75.5986 87.2798 76.0265 87.2798 76.6377C87.2798 77.5316 87.7169 78.5936 89.8105 78.5936C90.7691 78.5936 91.9962 78.3873 92.7707 77.501C92.8244 78.1886 93.0315 78.4484 93.622 78.4484C93.8444 78.4484 94.0591 78.4025 94.1511 78.3796L94.1358 78.1886L94.1741 78.3796L94.3275 78.3491V77.6156L94.0898 77.6767C94.0821 77.6844 94.0591 77.692 94.0284 77.6997ZM90.378 75.3542C90.6848 75.3083 90.9685 75.2778 91.2293 75.2548C91.8351 75.1937 92.3336 75.1479 92.7554 74.9034V75.7667C92.7554 77.0273 91.5514 77.9441 89.8872 77.9441C88.8366 77.9441 88.1004 77.4246 88.1004 76.6835C88.1004 75.7362 88.7982 75.591 90.378 75.3542Z" fill="black"/>
<path d="M106.368 76.2175C106.176 77.1725 105.133 77.8907 103.952 77.8907C102.295 77.8907 101.176 76.7599 101.176 75.0791C101.176 73.4441 102.28 72.344 103.921 72.344C105.118 72.344 106 72.8635 106.283 73.7345L106.329 73.8643H107.173L107.135 73.6428C106.943 72.4509 105.631 71.6182 103.944 71.6182C101.728 71.6182 100.355 72.9399 100.355 75.0715C100.355 77.2183 101.766 78.6012 103.944 78.6012C105.662 78.6012 107.035 77.6233 107.196 76.271L107.219 76.057H106.391L106.368 76.2175Z" fill="black"/>
<path d="M116.751 71.6257C114.581 71.6257 113.17 73.0009 113.17 75.1325C113.17 77.2794 114.543 78.6164 116.751 78.6164C118.408 78.6164 119.681 77.8371 119.988 76.6376L120.049 76.4008H119.121L119.075 76.5307C118.814 77.3405 117.879 77.8906 116.751 77.8906C115.118 77.8906 114.175 77.012 114.006 75.3465H120.302V75.1554C120.31 73.0009 118.914 71.6257 116.751 71.6257ZM116.751 72.3439C118.04 72.3439 119.336 73.0468 119.435 74.613H114.013C114.221 73.2225 115.279 72.3439 116.751 72.3439Z" fill="black"/>
<path d="M139.099 71.6946C136.882 71.6946 135.51 73.0163 135.51 75.1555C135.51 76.0953 135.778 76.9204 136.276 77.5392C136.928 78.288 137.902 78.6852 139.099 78.6852C140.356 78.6852 141.353 78.2574 141.982 77.4475C142.45 76.844 142.688 76.0723 142.672 75.1555C142.68 73.024 141.307 71.6946 139.099 71.6946ZM139.099 72.4127C140.778 72.4127 141.859 73.49 141.859 75.1479C141.859 76.8287 140.747 77.9594 139.099 77.9594C137.442 77.9594 136.322 76.8287 136.322 75.1479C136.33 73.49 137.419 72.4127 139.099 72.4127Z" fill="black"/>
<path d="M151.008 69.3643C149.835 69.3643 149.636 69.9296 149.636 71.1979V71.7862H148.455V72.5043H149.636V78.4559H150.425V72.5043H151.967V71.7862H150.425V71.0909C150.425 70.2887 150.541 70.0901 151.008 70.0901C151.292 70.0901 151.553 70.1206 151.729 70.1665L151.975 70.2352V69.5018L151.829 69.4636C151.622 69.4177 151.292 69.3643 151.008 69.3643Z" fill="black"/>
<path d="M170.694 71.6256C169.475 71.6256 168.578 72.0382 167.957 72.8939V69.3718H167.151V78.4712H167.957V77.3175C168.57 78.1656 169.498 78.6163 170.694 78.6163C172.857 78.6163 174.245 77.2411 174.245 75.1095C174.245 72.9932 172.849 71.6256 170.694 71.6256ZM170.694 72.3438C172.297 72.3438 173.417 73.4822 173.417 75.1095C173.417 76.7674 172.32 77.8829 170.679 77.8829C169.046 77.8829 167.957 76.7674 167.957 75.1095C167.957 73.4516 169.053 72.3438 170.694 72.3438Z" fill="black"/>
<path d="M183.946 71.6257C181.776 71.6257 180.365 73.0009 180.365 75.1325C180.365 77.2794 181.738 78.6164 183.946 78.6164C185.603 78.6164 186.876 77.8371 187.183 76.6376L187.244 76.4008H186.316L186.27 76.5307C186.009 77.3405 185.074 77.8906 183.946 77.8906C182.313 77.8906 181.37 77.012 181.201 75.3465H187.497V75.1554C187.505 73.0009 186.109 71.6257 183.946 71.6257ZM183.946 72.3439C185.235 72.3439 186.531 73.0468 186.63 74.613H181.209C181.416 73.2225 182.474 72.3439 183.946 72.3439Z" fill="black"/>
<path d="M200.565 77.6997C200.542 77.7073 200.496 77.7226 200.481 77.7226C200.35 77.7226 200.258 77.6997 200.212 77.6462C200.12 77.5545 200.12 77.3329 200.12 77.0961V74.0401C200.12 73.3295 200.097 72.8635 199.737 72.4204C199.269 71.8626 198.525 71.6182 197.26 71.6182C196.017 71.6182 195.128 71.8856 194.614 72.4051C194.277 72.7413 194.108 73.1767 194.115 73.6963V73.8873H194.921V73.6963C194.921 72.8329 195.749 72.3363 197.198 72.3363C198.149 72.3363 199.284 72.5426 199.284 73.5129C199.284 74.3075 198.878 74.3915 197.582 74.5443C197.367 74.5672 197.145 74.5978 196.899 74.6284C195.764 74.7735 194.982 74.8958 194.507 75.2396C194.031 75.5986 193.816 76.0265 193.816 76.6377C193.816 77.5316 194.254 78.5936 196.347 78.5936C197.306 78.5936 198.533 78.3873 199.307 77.501C199.361 78.1886 199.568 78.4484 200.159 78.4484C200.381 78.4484 200.596 78.4025 200.688 78.3796L200.672 78.1886L200.711 78.3796L200.864 78.3491V77.6156L200.626 77.6767C200.619 77.6844 200.596 77.692 200.565 77.6997ZM196.915 75.3542C197.221 75.3083 197.505 75.2778 197.766 75.2548C198.372 75.1937 198.87 75.1479 199.292 74.9034V75.7667C199.292 77.0273 198.088 77.9441 196.424 77.9441C195.373 77.9441 194.637 77.4246 194.637 76.6835C194.637 75.7362 195.335 75.591 196.915 75.3542Z" fill="black"/>
<path d="M212.743 75.1553C212.751 75.927 212.49 76.5917 211.992 77.0959C211.485 77.6078 210.788 77.8828 210.021 77.8828C208.518 77.8828 208.08 77.3557 208.08 75.5297V71.7937H207.291V76.118C207.291 77.8675 208.065 78.6163 209.883 78.6163C210.611 78.6163 211.639 78.4635 212.39 77.7453C212.505 77.6307 212.636 77.4932 212.766 77.3251V78.4788H213.548V71.8013H212.743V75.1553Z" fill="black"/>
<path d="M222.352 77.8752C221.747 77.8752 221.639 77.5696 221.639 76.7216V72.5043H223.181V71.7708H221.639V69.708H220.842V71.7708H219.661V72.5043H220.842V76.8133C220.842 77.9746 221.049 78.601 222.122 78.601C222.46 78.601 222.82 78.5399 223.073 78.4406L223.196 78.3948V77.5926L222.92 77.7224C222.828 77.7683 222.552 77.8752 222.352 77.8752Z" fill="black"/>
<path d="M234.254 71.7938L231.67 77.6919L229.109 71.7938H228.181L231.256 78.4712C230.734 79.6401 230.359 80.1596 229.607 80.1596C229.392 80.1596 229.101 80.1138 229.001 80.0909L228.771 80.0374V80.7479L228.902 80.7938C229.04 80.8396 229.3 80.8778 229.507 80.8778C230.765 80.8778 231.041 80.4041 231.54 79.5561L231.693 79.2887L235.159 71.7861H234.254V71.7938Z" fill="black"/>
<path d="M144.689 11.6816H138.424V55.3293H144.689V35.8625H157.389V34.938H144.689V12.6672H169.882V11.7504H144.689V11.6816Z" fill="black"/>
<path d="M181.5 11.6816H175.235V55.3293H181.5H212.736V54.5348H181.5V11.6816Z" fill="black"/>
<path d="M205.082 11.6816H199.392V45.3896H205.082V11.6816Z" fill="black"/>
<path d="M255.613 49.6987L220.228 11.7505H219.76H218.786V55.5204H219.76V19.5052L253.68 55.5204H255.613H256.103H256.586V11.7505H255.613V49.6987Z" fill="black"/>
<path d="M295 12.6673V11.7505H271.61H270.076H265.919V55.3294H270.076H271.61H295V54.405H271.61V30.5603H294.133V29.6359H271.61V12.6673H295Z" fill="black"/>
<path d="M108.515 11.1086C96.0915 11.1086 86.0222 21.0713 86.0222 33.3718C86.0222 45.6647 96.0915 55.635 108.515 55.635C120.939 55.635 131.008 45.6723 131.008 33.3718C131.008 21.0789 120.939 11.1086 108.515 11.1086ZM108.515 54.5348C98.4919 54.5348 90.3628 45.0611 90.3628 33.3718C90.3628 21.6825 98.4919 12.2088 108.515 12.2088C118.538 12.2088 126.667 21.6825 126.667 33.3718C126.667 45.0611 118.538 54.5348 108.515 54.5348Z" fill="black"/>
<path d="M22.5083 11.9566C21.7874 11.8267 21.2275 11.6892 20.545 11.6892H6.2655H0V55.5279H6.2655V44.7783H21.2352C21.2352 44.7783 22.2398 44.8318 23.3288 44.4193C27.4087 42.8836 36.7494 37.9634 36.7494 28.1154C36.7494 15.6315 23.2291 12.0789 22.5083 11.9566ZM21.2352 43.8692H6.2655V12.7359H20.545C20.545 12.7359 31.9564 14.9362 31.9564 28.0466C31.9564 41.1569 21.2352 43.8692 21.2352 43.8692Z" fill="black"/>
<path d="M80.2169 28.1078C80.2169 15.6316 67.7933 12.0789 67.1337 11.949C66.6736 11.8574 66.2902 11.7657 65.8837 11.7198V11.6816H50.1011H48.6977H43.8433V55.5204H50.1088V44.7784H64.7564L72.5403 55.3293H78.9285L70.4237 44.32C72.433 42.7614 80.2169 37.9558 80.2169 28.1078ZM65.9604 43.8692H50.1011V12.736H65.3239C65.3239 12.736 75.8073 14.9363 75.8073 28.0467C75.8073 41.157 65.9604 43.8692 65.9604 43.8692Z" fill="black"/>
<path d="M202.237 5.43973C203.745 5.43973 204.967 4.222 204.967 2.71986C204.967 1.21772 203.745 0 202.237 0C200.729 0 199.507 1.21772 199.507 2.71986C199.507 4.222 200.729 5.43973 202.237 5.43973Z" fill="black"/>
</svg>
