<svg width="30" height="30" viewBox="0 0 30 30" fill="none" xmlns="http://www.w3.org/2000/svg">
<path d="M15 3.375C17.9699 3.375 20.375 5.78012 20.375 8.75C20.375 11.7199 17.9699 14.125 15 14.125C12.0301 14.125 9.625 11.7199 9.625 8.75C9.625 5.78012 12.0301 3.375 15 3.375ZM15.0001 26.625H15.0001H14.9999H14.9999L14.9986 26.625L14.9927 26.625L14.9677 26.6249L14.8669 26.6243C14.7779 26.6235 14.6464 26.622 14.4785 26.619C14.1426 26.613 13.6613 26.601 13.0833 26.5769C11.9251 26.5287 10.3886 26.4324 8.85853 26.2411C7.31533 26.0482 5.83448 25.7651 4.76036 25.3624C4.2205 25.1599 3.84244 24.9485 3.6133 24.748C3.39541 24.5573 3.375 24.4372 3.375 24.375C3.375 22.956 4.57609 21.2321 6.81862 19.7999C9.0083 18.4015 11.9709 17.4375 15 17.4375C18.0291 17.4375 20.9917 18.4015 23.1814 19.7999C25.4239 21.2321 26.625 22.956 26.625 24.375C26.625 24.4372 26.6046 24.5573 26.3867 24.748C26.1576 24.9485 25.7795 25.1599 25.2396 25.3624C24.1655 25.7651 22.6847 26.0482 21.1415 26.2411C19.6114 26.4324 18.0749 26.5287 16.9167 26.5769C16.3387 26.601 15.8574 26.613 15.5215 26.619C15.3536 26.622 15.2221 26.6235 15.1331 26.6243L15.0323 26.6249L15.0073 26.625L15.0014 26.625L15.0001 26.625Z" stroke="black" stroke-width="1.75"/>
</svg>
