<svg width="30" height="30" viewBox="0 0 30 30" fill="none" xmlns="http://www.w3.org/2000/svg">
<path fill-rule="evenodd" clip-rule="evenodd" d="M24.5363 9.14715H2.81048V25.4415C2.81048 25.9217 3.00123 26.3822 3.34076 26.7217C3.68029 27.0612 4.1408 27.252 4.62097 27.252H22.7258C23.206 27.252 23.6665 27.0612 24.006 26.7217C24.3455 26.3822 24.5363 25.9217 24.5363 25.4415V9.14715ZM1 7.33667V25.4415C1 26.4018 1.38149 27.3229 2.06056 28.0019C2.73962 28.681 3.66063 29.0625 4.62097 29.0625H22.7258C23.6861 29.0625 24.6072 28.681 25.2862 28.0019C25.9653 27.3229 26.3468 26.4018 26.3468 25.4415V7.33667H1Z" fill="black"/>
<path d="M13.6734 2.81048C12.4729 2.81048 11.3217 3.28735 10.4729 4.13618C9.62402 4.98501 9.14715 6.13627 9.14715 7.33669H7.33667C7.33667 5.6561 8.00428 4.04434 9.19264 2.85597C10.381 1.66761 11.9928 1 13.6734 1C15.354 1 16.9657 1.66761 18.1541 2.85597C19.3424 4.04434 20.0101 5.6561 20.0101 7.33669H18.1996C18.1996 6.13627 17.7227 4.98501 16.8739 4.13618C16.025 3.28735 14.8738 2.81048 13.6734 2.81048Z" fill="black"/>
<path d="M5 15V23C5 24.1046 5.89543 25 7 25H14" stroke="#73CAC2" stroke-width="2" stroke-linecap="round" stroke-linejoin="round"/>
</svg>
